<svg version="1" xmlns="http://www.w3.org/2000/svg" width="933.333" height="933.333" viewBox="0 0 700.000000 700.000000"><path d="M314.7 43.5c-.1.2-4 .5-8.7.8-9.5.7-10.1.8-18.5 3.2-8.1 2.4-17.7 7.3-25.5 13.1-9.4 7.1-26.8 24.6-33.8 34.2-12 16.2-14.5 22.5-16.7 42.8-.7 6.5-.6 29.9.1 31.9.8 2.1 0 1.7-5.2-2.2-4.6-3.4-15.3-8-21.4-9.1-18.5-3.4-47.2 5.5-66.1 20.6-19.2 15.3-30.9 33-40.6 61.2-2.8 8-3.9 23.3-2.3 29.2.9 2.8.9 2.8-1.3 1.1-1.2-1-6-5.4-10.7-9.9-14.7-14-15.2-14.4-16.4-13.6-2.4 1.8-18.8 15.1-23.2 18.7l-2.4 2 3.4 4c1.9 2.2 13.8 16.6 26.6 32 12.7 15.4 23.9 28.9 24.8 30 .9 1.1 4.8 5.8 8.6 10.5 3.9 4.7 7.3 8.7 7.6 9 .3.3 5.4 6.3 11.2 13.5 23.6 28.8 36.1 44 36.7 44.5.3.3 2.4 2.7 4.6 5.5 5.9 7.3 6.9 8.6 8 9.9.6.6 4.2 4.9 8 9.6 3.8 4.7 7.2 8.7 7.5 9 .3.3 4.6 5.4 9.5 11.5 4.9 6 9.2 11.2 9.5 11.5.3.3 2.4 2.7 4.5 5.5 2.2 2.7 4.5 5.5 5 6.1.6.6 3.3 3.7 6 6.9 2.8 3.2 5.5 6.3 6 6.9.6.6 6.2 7.2 12.5 14.6 6.3 7.4 12.6 14.8 14.1 16.5 1.4 1.6 5.9 6.8 9.9 11.5 3.9 4.7 8.2 9.6 9.3 11 1.2 1.4 4.7 5.4 7.7 9 3 3.6 5.7 6.7 6 7 .3.3 7 8.1 15 17.5 8 9.3 14.7 17.2 15 17.5.3.3 7.3 8.4 15.5 18s16.1 18.6 17.5 20c11.8 11.7 27.7 18 47 18.4 24 .5 40.8-4.5 57.5-17.1 15.4-11.6 32.6-30.6 42.3-46.4 3.5-5.8 4.6-8.9 6.7-19.9 1.3-6.6 1.9-16.8 1.8-29.9l-.2-14.3 2.2 2c4.1 3.8 12.8 8.2 19.9 10.2 14.6 4 34.7.6 54.4-9.3 20.4-10.3 38.3-29.3 48.5-51.4 2.2-4.8 4.8-10.2 5.6-11.8 4.9-8.9 6.3-12.5 6.9-17.5.4-3 .8-6.1.9-6.9.2-1.5-.8-7.4-2.1-12.7-.6-2.6 0-2.2 6.6 4.1 4 3.8 7.8 7.4 8.4 8 .7.5 3.5 3.2 6.3 5.9l5.1 4.9 12.6-10.3c6.9-5.6 12.8-10.5 13.1-11 .2-.4-4.4-6.6-10.3-13.7s-12.3-14.9-14.2-17.2c-1.9-2.4-4-4.8-4.5-5.5-.6-.6-2.3-2.7-3.9-4.6-1.5-1.9-4.5-5.5-6.6-8-2.1-2.5-9.3-11.3-16.1-19.5-6.8-8.3-13.2-15.9-14.1-17-.9-1.1-5.3-6.5-9.8-12-4.5-5.5-9.2-11.1-10.4-12.5-1.1-1.4-4.1-5-6.6-8s-4.9-6-5.5-6.6c-.5-.7-2.6-3.1-4.5-5.5-3.6-4.4-13.9-16.9-16.9-20.4-.9-1.1-5.9-7.2-11.1-13.5-5.2-6.3-10.2-12.4-11.1-13.5-1-1.1-6.7-8.1-12.8-15.5-6.1-7.4-12.1-14.6-13.3-16-1.9-2.2-7.1-8.3-25.3-29.5-2.3-2.8-7.7-9.1-12-14-4.2-5-9.6-11.3-12-14-28.8-33.8-43.1-50.5-45.3-53-2.6-3-11.5-13.4-15.8-18.5C366.7 61.3 362 56.7 351 51.3c-9.1-4.4-19.6-7.1-29.8-7.6-3.4-.2-6.3-.3-6.5-.2zm10.8 50.2c7 1.7 18 7.3 22.2 11.1 1.6 1.5 5.8 6.1 9.3 10.2 3.5 4.1 8.2 9.7 10.6 12.5 2.3 2.7 18.9 22.3 37 43.5 37.9 44.7 38.1 44.9 51.1 60 5.4 6.4 11 13 12.4 14.6 1.4 1.7 3 3.3 3.6 3.5 1.1.4 11.3 13.1 57.7 71.8 8.8 11.2 24.1 30.5 33.9 42.8 19.7 25 18.8 23.7 21.5 31.9 5.7 17.1 6.7 25.3 4.8 38.4-3 21.1-23.4 47.3-43.1 55.5-13.5 5.5-29.2 4.7-44.7-2.3-5.2-2.4-16-9.6-19.9-13.3-1.4-1.3-17.1-20-34.9-41.4-17.9-21.5-32.7-39.2-33-39.5-.5-.4-12.6-14.8-17.1-20.5-1-1.1-4.6-5.4-8-9.6-3.5-4.1-8.4-10-10.9-12.9-2.5-3-7.9-9.3-12-14-4.1-4.7-10.4-12.3-14-16.9-3.6-4.6-11-14-16.6-21-12.7-15.8-60-75.7-63.4-80.1-1.4-1.8-3-3.8-3.5-4.4-.6-.6-2.6-3.1-4.5-5.6-1.9-2.5-3.7-4.7-4-5-2.7-2.4-12-15.8-12.1-17.4-.1-1.2-.3-3.2-.5-4.6-.7-5-.7-28.7 0-35 .8-7.9 2.1-12.4 4.6-17 1-1.9 2.3-4.4 2.9-5.5 3.6-7.4 23.5-22.9 35.2-27.5 12.4-4.8 22.9-5.5 35.4-2.3zM183.8 206.5c11.6 2.8 24.4 9.9 33.5 18.8 2.4 2.3 10.6 11.8 18.3 21.1 7.6 9.3 14.4 17.4 14.9 18 .6.6 4.2 4.9 8 9.6 3.8 4.7 7.2 8.7 7.5 9 .3.3 3.9 4.5 8 9.5 4.1 4.9 7.7 9.2 8 9.5.3.3 2.4 2.7 4.5 5.5 2.2 2.7 4.3 5.2 4.6 5.5.4.3 5.1 5.9 10.5 12.5 5.5 6.6 10.9 13.1 12.1 14.5 1.2 1.4 6.3 7.4 11.3 13.5 5 6 9.7 11.4 10.4 12 1.3 1.1 5.6 6.5 56.6 71 20 25.3 41.2 52.1 47.1 59.6 10 12.6 10.9 14 11.8 19.5 1.2 7.8.7 37.6-.8 43.8-1.7 7.1-5.6 14.7-10.2 19.9-5.3 6.1-19 16.7-26.4 20.5-18.7 9.6-39.8 8.7-57-2.3-6.5-4.2-7.7-5.4-16-15.5-3.8-4.7-7.2-8.7-7.6-9-.3-.3-4.6-5.2-9.5-11-9.5-11.3-41.4-48.9-45-53-4.1-4.7-27.9-32.8-29.8-35.1-7.4-9.1-21.2-24.5-22-24.7-.6-.2-3.1-3.1-5.6-6.4-2.5-3.3-5-6.6-5.5-7.2-.6-.6-6.4-7.9-12.9-16.1-6.5-8.3-13.1-16.6-14.6-18.5-1.6-1.9-11.9-15-23-29-11-14-26.5-33.6-34.4-43.5-14.1-17.9-14.2-18.1-18.1-29.4-8.6-25.6-4.7-47 12.5-68.4 17-21.2 36.8-29.4 58.8-24.2z"/></svg>