<svg xmlns="http://www.w3.org/2000/svg" viewBox="0 0 192 192"><defs><style>.cls-1{fill:#fff;}</style></defs><g id="Layer_2" data-name="Layer 2"><g id="Layer_1-2" data-name="Layer 1"><rect class="cls-1" width="192" height="192"/><g id="news"><path d="M44.63,74.59h85.62V66H44.63ZM91.72,126h30v-8.56h-30Zm0-17.13h38.53v-8.56H91.72Zm0-17.12h38.53V83.16H91.72ZM44.63,126H83.16V83.16H44.63Zm102.75-68.5V40.34H27.5v94.19s0,17.13,17.13,17.13h107s12.84-.27,12.84-17.13V57.47ZM44.63,143.09c-8.57,0-8.57-8.56-8.57-8.56V48.91H138.81v85.62a12.38,12.38,0,0,0,2.9,8.56Z"/></g></g></g></svg>