<svg xmlns="http://www.w3.org/2000/svg" viewBox="0 0 192 192"><defs><style>.cls-1{fill:none;}</style></defs><g id="Layer_2" data-name="Layer 2"><g id="Layer_1-2" data-name="Layer 1"><rect class="cls-1" width="192" height="192"/><path d="M97.1,21.46l-2.7.16c-3.57.21-9.21.71-12,1.05a44.56,44.56,0,0,0-16.2,4.79,78.61,78.61,0,0,0-17.4,10.75A100.45,100.45,0,0,0,41,46.08,66.61,66.61,0,0,0,27.45,70.94c-1.42,4.55-1.69,6.16-1.28,7.52.25.85.83,1.38,2.37,2.15,2.14,1.07,2.21,1.14,2.61,2.39a82.92,82.92,0,0,1,2,8.36,55.69,55.69,0,0,1-2.89,6.56,17.48,17.48,0,0,0-1,2.25c-.66,2.45.61,5.83,4.23,11.24,1.31,1.94,2.76,4,6.84,9.39,2.69,3.58,3.5,4.74,3.5,5,0,.68,1,10.09,1.21,11a4.52,4.52,0,0,0,1.45,2.75c.88.94.82.84,3.14,5.75,2.14,4.53,2.72,5.32,6,8.22a25.19,25.19,0,0,1,3.75,3.77,6.64,6.64,0,0,1,.51,1.33c.59,2.16,1.58,3.22,3.25,3.46a4.89,4.89,0,0,0,2.23-.24c.33-.24.24-1.22-.35-3.74-1.45-6.2-2.25-12.31-3.13-23.59-1.34-17.59-1.67-31.6-.91-39.07.1-1,.21-2.61.25-3.7l.06-2L61,89.64c-.7-.37-2.43.12-3.44,1s-1.31,1.7-1.85,5c-.5,3-.76,3.86-1.47,4.51s-1.78.82-4.41.92l-.89,0-4.68-4.2c-2.58-2.32-4.78-4.28-4.9-4.38s-.47-1.68-1.55-9.19l-.52-3.61,1.18-2.2A95.7,95.7,0,0,1,47,63.91C58.45,49,72.78,40.71,89.81,39.17a106.54,106.54,0,0,1,11-.05c10.59.77,19,3.41,26.7,8.37,5.11,3.31,14.76,12,19,17,1.07,1.28,3.44,4.43,4.22,5.6,1.66,2.45,1.8,3.41,1.45,9.27-.23,3.89-.45,5.77-.76,6.37-.48.93-4.65,5.43-7.5,8.11-1.67,1.57-1.95,1.71-3.13,1.6a10.44,10.44,0,0,1-3.05-.87c-.85-.61-1.33-1.71-2-4.56-.73-3.23-1.48-4.34-3.22-4.66-.35-.07-1.07-.23-1.61-.37-1.19-.3-1.37-.23-1.37.53a92.28,92.28,0,0,0,1.95,9.28l1,4.31.75,11.8c1.88,30.09,2,33.15,1.55,41.25a33.41,33.41,0,0,0,.06,5.68,13.58,13.58,0,0,0,2.75-.66,3.16,3.16,0,0,0,1.78-2.77c.38-2.56.95-3.48,3.59-5.93a18.77,18.77,0,0,0,3.31-5,42.09,42.09,0,0,0,2.55-6.35,21.35,21.35,0,0,1,2-4.78,4.86,4.86,0,0,0,.55-1c.09-.28.16-2.37.19-6.78l.07-6.4L153,116c.68-1.25,2.18-3.92,3.33-5.93,3.61-6.34,5.44-10.13,6.13-12.69a14.53,14.53,0,0,0,.42-4.72c-.15-1.2-.42-1.74-1.76-3.63a34.45,34.45,0,0,1-2.88-4.5l-.37-.79V81.52a36.24,36.24,0,0,1,.57-6.37,3.68,3.68,0,0,1,2-2.56,5.22,5.22,0,0,0,2.21-2.29,3.92,3.92,0,0,0,0-3.21,77.22,77.22,0,0,0-3.36-7.43A58,58,0,0,0,152.85,49c-8.13-10.8-16.72-17.22-30.66-22.91a84.12,84.12,0,0,0-16.51-4.31,26,26,0,0,0-4.89-.34C99.11,21.44,97.45,21.44,97.1,21.46Z"/><path d="M114.88,81.11a13.33,13.33,0,0,0-5.48,2,9.45,9.45,0,0,0-2.92,5.22c-.11.9.25,8.25.92,19,.31,4.86,1.2,18.11,2.65,39.64l.89,13.06.81,1.33a7.75,7.75,0,0,0,4.94,3.94c.88.23,1.22.26,4,.26,5.29,0,6.56-.36,7.72-2.15a24,24,0,0,0,2.56-8.44c.75-5.05.78-16.22.07-28.48-.86-14.87-2.48-28.89-4.2-36.28-.86-3.74-1.78-5.62-3.67-7.52A5.72,5.72,0,0,0,120.26,81,22.81,22.81,0,0,0,114.88,81.11Z"/><path d="M71.35,83.89a6.11,6.11,0,0,0-3.71,1.83c-1.28,1.27-2,3-2.64,6-.69,3.43-.92,6.89-.92,13.75,0,6.53.3,13.08,1,22.84,1.52,20.14,3.35,31.59,5.86,36.77a5.12,5.12,0,0,0,2.57,2.75,7.51,7.51,0,0,0,4.11.82,15.87,15.87,0,0,0,4.6-.58c4.79-1.18,6-2.57,6.8-8.05a23.09,23.09,0,0,0,.18-5.07c-.06-3.31-.14-4.92-.65-13C87.93,131.61,86.67,113,86,104c-.64-8.62-1-12.15-1.39-13.68-.7-2.73-3.06-5.5-5.19-6.09A34.45,34.45,0,0,0,71.35,83.89Z"/></g></g></svg>