<svg xmlns="http://www.w3.org/2000/svg" viewBox="0 0 192 192"><defs><style>.cls-1{fill:none;}.cls-2{fill:#37474f;}</style></defs><g id="Layer_2" data-name="Layer 2"><g id="Layer_1-2" data-name="Layer 1"><rect class="cls-1" width="192" height="192"/><g id="emailer"><rect class="cls-2" x="85.41" y="50.98" width="37.07" height="2.65"/><rect class="cls-2" x="85.41" y="61.57" width="52.96" height="2.65"/><rect class="cls-2" x="53.63" y="93.35" width="84.74" height="2.65"/><rect class="cls-2" x="53.63" y="82.76" width="84.74" height="2.65"/><rect class="cls-2" x="53.63" y="72.17" width="84.74" height="2.65"/><rect class="cls-2" x="85.41" y="40.39" width="37.07" height="2.65"/><path class="cls-2" d="M154.26,73.78V53.63L125.13,24.5H37.74V74.13L24.5,85.41V167.5h143V85.41ZM127.78,30.89,147.87,51H127.78Zm-95.84,134,59.57-48.54a7.59,7.59,0,0,1,9,0l59.57,48.54Zm132.91-78L110.09,117.3l2.21,1.81,52.55-29.2v75.43l-62.69-51.08a10.2,10.2,0,0,0-12.32,0L27.15,165.34V89.91L79.7,119.1l2.21-1.8L27.15,86.88v-.25l10.59-9V90.12l2.65,1.47V27.15h84.74V53.63h26.48v38l2.65-1.48V77.61l10.59,9Z"/><path class="cls-2" d="M77.46,40.39H53.63V64.22H77.46ZM74.81,61.57H56.28V43H74.81Z"/></g></g></g></svg>