<svg xmlns="http://www.w3.org/2000/svg" viewBox="0 0 334.73 434.81"><defs><style>.cls-1{fill:#b28b67;}.cls-1,.cls-10,.cls-11,.cls-12,.cls-14,.cls-16,.cls-17,.cls-2,.cls-3,.cls-4,.cls-5,.cls-6,.cls-7,.cls-8,.cls-9{fill-rule:evenodd;}.cls-2{fill:#191847;}.cls-3{fill:#2f3676;}.cls-4{fill:#e4e4e4;}.cls-5{fill:#997659;}.cls-6{fill:#5c63ab;}.cls-7{fill:#69a1ac;}.cls-8{fill:#89c5cc;}.cls-9{fill-opacity:0.1;}.cls-10{fill-opacity:0.4;}.cls-11{fill:#dde3e9;}.cls-12,.cls-15,.cls-16{fill:#fff;}.cls-12{fill-opacity:0.2;}.cls-13{fill:#1d1f00;}.cls-17{fill:#0000a7;}</style></defs><g id="Layer_2" data-name="Layer 2"><g id="Layer_1-2" data-name="Layer 1"><g id="Layer_2-2" data-name="Layer 2"><g id="Layer_1-2-2" data-name="Layer 1-2"><g id="Head_Front_Top" data-name="Head Front Top"><g id="Head"><path class="cls-1" d="M202.71,49.49c-4.61-5.41-7.73-12-7.21-19.46,1.5-21.41,31.3-16.7,37.09-5.9s5.11,38.2-2.38,40.13c-3,.77-9.35-1.11-15.83-5L218.45,88h-24Z"/></g><path id="Hair" class="cls-2" d="M207.45,14.79c12.05-4.18,27.7.7,25.6,10.49-1.34,6.29-8.62,9.43-15.78,12.79A6.21,6.21,0,0,0,211.89,35a6.08,6.08,0,0,0-6.15,6,5.76,5.76,0,0,0,1,3.24,12.34,12.34,0,0,0-4.52,7.89c-3.88,0-10.16-11.4-8.09-22.22a15,15,0,1,1,13.26-16.56q.08.72.09,1.44Z"/></g><g id="Bottom_Standing_Sprint" data-name="Bottom Standing Sprint"><path id="Leg" class="cls-1" d="M186.54,195.81c1.8,24.61,118,97.06,118.64,99.1q.45,1.35-36.16,85.68l10.16,4q56.15-89.31,53.27-98.83-4.14-13.62-90.13-89.64Z"/><path id="Pant" class="cls-3" d="M271.7,367.89l16.57,6c35-39.44,48.66-72,46.17-88.57q-2.51-16.57-89.82-89.49H185.35c2,57,109.69,99.25,111.13,101.68S283.75,323.77,271.7,367.89Z"/><g id="Accessories_Shoe_Flat-Sneaker" data-name="Accessories Shoe Flat-Sneaker"><path id="shoe" class="cls-4" d="M265.29,378.65a21.42,21.42,0,0,0-3.87,5.73,48.74,48.74,0,0,0-1.85,7.72l53,19.29q4.55-6.08.3-8.24c-2.84-1.44-5.19-2.67-7-3.67l-20.64-20a1,1,0,0,0-1.41,0h0l-3,3.27a18,18,0,0,1-7.4-.52,16,16,0,0,1-5.17-3.79h0a2,2,0,0,0-2.82,0Z"/></g><polygon id="Leg-2" class="cls-5" points="199.9 195.81 148.15 320.04 97.29 425.06 109.29 425.06 240.57 195.81 199.9 195.81"/><g id="Accessories_Shoe_Flat-Sneaker-2" data-name="Accessories Shoe Flat-Sneaker-2"><path id="shoe-2" class="cls-4" d="M96.57,420.21a21.61,21.61,0,0,0-1.67,6.71,49.78,49.78,0,0,0,.9,7.89h56.4q2.2-7.26-2.54-7.85c-3.16-.39-5.78-.73-7.87-1l-26.21-11.69a1,1,0,0,0-1.32.51h0l-1.68,4.09a18.13,18.13,0,0,1-7.13,2,16.18,16.18,0,0,1-6.15-1.8h0a2,2,0,0,0-2.65,1h0Z"/></g><path id="Pant-2" class="cls-6" d="M101.88,403.24l26.67,5c20.61-30.3,106.89-154.58,116.35-212.43H185.54C154,237.63,121.54,372.44,101.88,403.24Z"/></g><g id="Body_Trench-Coat" data-name="Body Trench-Coat"><path id="Skin" class="cls-1" d="M275.18,169.13l31.9,23.43a85.61,85.61,0,0,1,21.68,8.71c1.37,1.25,3,3.78-2.66,3.34s-11.69-.64-12.47,1.3,2.66,4.26,1.07,6.87q-1.59,2.63-15-13.12l-31.58-13.1Zm-144.35-9.75,17.61,3.18Q117.78,223.4,115.6,226.9c-3.28,5.25,0,14.7,1.27,19.68-7.24,1.83-4.56-9.18-13.73-6.73-8.37,2.23-15.4,7.72-23.36.63-1-.87-1.74-3.64,1.52-5.12,8.12-3.69,20.1-10.55,22-13.16q3.95-5.34,27.53-62.82Z"/><path id="Back-Arm" class="cls-7" d="M282.61,171.68a34.08,34.08,0,0,1,13.35,2,4.5,4.5,0,0,1,.05,8.51l2.77,2-8,16.43c-33.87-16.88-65.69-29.61-80.2-57.49-4.87-9.35-3.22-41.13-3.68-52.69L217.55,86C232.46,116.86,252.64,146.42,282.61,171.68Z"/><path id="Shirt" class="cls-2" d="M169.29,197.91q47.16,5.18,74.23,0c2.24-.43,2.14-10.07,1.11-12.7-16.16-41-26.78-71-26.78-99.51q-4.44,2.33-15.56.7C182.37,115.75,173.22,149.43,169.29,197.91Z"/><path id="Coat-Front" class="cls-8" d="M163.45,202.76a4.47,4.47,0,0,1-1.35-4.06l.52-3a4.52,4.52,0,0,1,3.9-3.69c.33-1.5.62-3,.86-4.47,2-12.49-1.43-24.75-1.27-36.78Q142,171.39,122.84,221.87L104,216.31c.72-2.67,1.47-5.32,2.24-7.93-2.18-1.24-4.73-6.91-2.89-7.86a22,22,0,0,1,6-2.08q26-78.24,85-114.44h11.38c-3.35,44.28,42.9,141,26.84,223.52-29.68,6.63-72.06-14-113.31,2.48C120.71,276.75,151.45,237.69,163.45,202.76Z"/><polygon id="Shade-Lapel" class="cls-9" points="198.39 85 193.24 100.86 203.62 112.76 194.24 122.11 216.95 161 189.17 122.18 198.39 112.76 189.17 102.25 198.39 85"/><path id="Buttons" class="cls-10" d="M210.29,176a4,4,0,1,1,4-4A4,4,0,0,1,210.29,176Zm5,23a4,4,0,1,1,4-4A4,4,0,0,1,215.29,199Zm1,23a4,4,0,1,1,4-4A4,4,0,0,1,216.29,222Z"/></g><g id="Head_Front_Short-Beard" data-name="Head Front Short-Beard"><g id="Head-2"><path class="cls-1" d="M89,46.49c-4.61-5.41-7.72-12-7.2-19.46,1.5-21.41,31.29-16.7,37.08-5.9s5.11,38.2-2.38,40.13c-3,.77-9.35-1.11-15.82-5L104.74,85h-24Z"/></g><path id="Hair-2" class="cls-2" d="M101.88,29.39q1.37,19.2,7.29,19.19c5.91,0,10.93-3.75,13.52-3.75,1.89,0,1.47,2.37.22,4.12-1,1.45-6.08,2.85-6.08,5.09s4,.51,4,1.84c0,2.2.7,6.34-3.12,6.34s-15-1.41-16.86-7.15Q99,49.52,98.46,32q-.36,0-.72,0a6,6,0,0,0-4.19,10.29c-1.39,2-3,4-4.73,6.12-6.7-4-11.67-15.78-5.12-27.08,1.81-5.54,5.91-8.49,10.75-9.87a17.38,17.38,0,0,1,11.42-.84c6.74.58,12.75,2.63,14.45,3.85,0,6.38-1.23,8.27-11.78,8.1C105.94,23.94,104,26.3,101.88,29.39Z"/></g><g id="Bottom_Standing_Sweatpants" data-name="Bottom Standing Sweatpants"><polygon id="Leg-3" class="cls-5" points="77.84 195.81 114.47 322.04 131.7 416.81 148.99 416.81 131.73 195.81 77.84 195.81"/><path id="Leg-4" class="cls-1" d="M61.37,195.81c2.56,65.58,1.55,101.34,1,107.3s-3.84,45.89-26,115.7h18c29.3-67,39.54-106.9,42.9-115.7s13.29-44.56,27.78-107.3Z"/><path id="Pant-3" class="cls-7" d="M77.05,195.81q14.3,65.16,49.44,208h25.29c1.87-97.74-6.08-162.08-19.84-208Z"/><path id="Pant-4" class="cls-8" d="M61.25,195.81c2.5,65.58-4,130.18-24.08,209h27c29.37-66,50.41-130.28,64.79-209Z"/><g id="Accessories_Shoe_Flat-Simple" data-name="Accessories Shoe Flat-Simple"><path id="Shoe-3" class="cls-2" d="M33.84,431.81l1-16q8.71,2.55,21.83-2,14.11,10,35.51,13.65h0a2,2,0,0,1,1.64,2.3V430l-1.37,4.84H35.82Z"/></g><g id="Accessories_Shoe_Flat-Simple-2" data-name="Accessories Shoe Flat-Simple-2"><path id="Shoe-4" class="cls-2" d="M127.84,431.81l1-16q8.72,2.55,21.83-2,14.12,10,35.51,13.65h0a2,2,0,0,1,1.64,2.3,1.6,1.6,0,0,1,0,.21l-1.37,4.84H129.82Z"/></g></g><g id="Body_Jacket" data-name="Body Jacket"><path id="Skin-2" class="cls-1" d="M159.88,170.74l28.33,27.64A85.68,85.68,0,0,1,208.47,210c1.18,1.42,2.47,4.16-3.1,2.94s-11.48-2.27-12.53-.45,2,4.58.1,6.95q-1.94,2.37-13-15.08L150.47,187Zm-125.73,3.9,20.89.08Q35.69,237.21,34.15,241c-2.32,5.73,2.58,14.47,4.67,19.16-6.82,3-6.09-8.25-14.69-4.25-7.86,3.65-13.83,10.27-22.9,4.68-1.12-.69-2.34-3.28.61-5.31,7.36-5,18-13.87,19.4-16.78Q24.17,232.59,34.15,174.64Z"/><path id="Coat-Back" class="cls-2" d="M93.53,87l8.65-1.48q22.33,55.79,78,101.38l-28,34C115,177.63,92.17,133,93.53,87Z"/><path id="Shirt-2" class="cls-11" d="M55.84,195.62h77q-26.76-65.06-26.76-110.54L82.85,81.62C64.6,111,59.44,147.13,55.84,195.62Z"/><path id="Coat-Front-2" class="cls-3" d="M82.36,81.64h1.51c1.82.06,4.58.18,8.29.34l5.62,16q.89,29.33,10.4,118.23H57.71c.14,4.09.35,8.22.66,12.39H20.84q8.41-95,61.5-147Z"/><path id="Shade" class="cls-9" d="M61.05,163.85q2.14,38.28,10.79,52.77H57.73A264.1,264.1,0,0,1,61.05,163.85Z"/><polygon id="Light" class="cls-12" points="68.95 185.62 93.84 174.05 93.84 185.62 68.95 185.62"/></g></g></g><ellipse class="cls-13" cx="97.28" cy="36.59" rx="6.91" ry="7.45"/><ellipse cx="97.3" cy="36.5" rx="5.81" ry="6.13"/><polygon class="cls-14" points="94.96 37.41 95.05 13.21 94.8 10.18 98.53 9.77 99.47 16.35 100.05 37.5 94.96 37.41"/><ellipse class="cls-15" cx="210.94" cy="40.06" rx="1.82" ry="2.11"/><path class="cls-16" d="M223.57,155.21a.76.76,0,0,0-.06-.16.61.61,0,0,0,0-.23c-4.12-14.48-1.3-29.7-3.2-44.45-.22-1.69-.51-3.36-.83-5a.44.44,0,0,0,.14-.34,15.23,15.23,0,0,1-.06-2.7.42.42,0,0,0,.12-.32,119.34,119.34,0,0,1,.15-15.71c.5-5.1,2.11-10,2.82-15a22.61,22.61,0,0,0-.17-8.16l0,0a1.22,1.22,0,0,1-.35-.14,1.67,1.67,0,0,1-.41-.07.47.47,0,0,0-.19.51c1.13,4.94-.18,10-1.29,14.77a68.83,68.83,0,0,0-1.72,15.07c0,2.79.07,5.58.17,8.37a79.51,79.51,0,0,0-4-12.2c-1.4-3.34-3.13-6.51-4.57-9.82a27.53,27.53,0,0,1-2.4-10.68c-.1-8.24,2.87-16.14,3.73-24.28a.41.41,0,0,0-.14-.37,4.31,4.31,0,0,0,.34-1.86c0-1.23-.34-2.23-.76-2.23s-.76,1-.76,2.23a3.89,3.89,0,0,0,.42,2,.51.51,0,0,0-.1.25c-.78,7.34-3.23,14.42-3.67,21.81A28,28,0,0,0,208,77a92.71,92.71,0,0,0,4.41,9.81A79.83,79.83,0,0,1,219,108c1.19,7.36,1.13,14.81,1.13,22.24,0,8.26.16,16.63,2.4,24.65v0s0,.05,0,.07v.08a.33.33,0,0,0,0,.19.34.34,0,0,0,.07.11.37.37,0,0,0,0,.11,8.06,8.06,0,0,1-.62,4.11c-.26.66-.57,1.3-.89,1.93-.24.46-.63,1.2-1.26,1.07s-.9.84-.27,1c1.82.37,2.62-1.88,3.17-3.19A9.36,9.36,0,0,0,223.57,155.21Z"/><path class="cls-17" d="M97.66,39.88a.5.5,0,0,0,0,1A.5.5,0,0,0,97.66,39.88Z"/></g></g></svg>